<mxfile host="app.diagrams.net" modified="2023-05-24T13:38:38.591Z" agent="Mozilla/5.0 (X11; Linux x86_64) AppleWebKit/537.36 (KHTML, like Gecko) Chrome/113.0.0.0 Safari/537.36" etag="HbadFxKO5VBLkDoEk0rP" version="21.3.3" type="device">
  <diagram id="R2lEEEUBdFMjLlhIrx00" name="Page-1">
    <mxGraphModel dx="2452" dy="781" grid="1" gridSize="10" guides="1" tooltips="1" connect="1" arrows="1" fold="1" page="1" pageScale="1" pageWidth="850" pageHeight="1100" math="0" shadow="0" extFonts="Permanent Marker^https://fonts.googleapis.com/css?family=Permanent+Marker">
      <root>
        <mxCell id="0" />
        <mxCell id="1" parent="0" />
        <mxCell id="c0UZ7J_gqb2rF32JrTu6-5" value="" style="shape=partialRectangle;overflow=hidden;connectable=0;fillColor=none;top=0;left=0;bottom=0;right=0;" vertex="1" parent="1">
          <mxGeometry x="120" y="210" width="30" height="30" as="geometry">
            <mxRectangle width="30" height="30" as="alternateBounds" />
          </mxGeometry>
        </mxCell>
        <mxCell id="c0UZ7J_gqb2rF32JrTu6-11" value="" style="group" vertex="1" connectable="0" parent="1">
          <mxGeometry x="340" y="140" width="170" height="180" as="geometry" />
        </mxCell>
        <mxCell id="c0UZ7J_gqb2rF32JrTu6-6" value="" style="endArrow=none;html=1;rounded=0;entryX=0.111;entryY=0;entryDx=0;entryDy=0;entryPerimeter=0;" edge="1" parent="c0UZ7J_gqb2rF32JrTu6-11" target="C-vyLk0tnHw3VtMMgP7b-27">
          <mxGeometry width="50" height="50" relative="1" as="geometry">
            <mxPoint x="10" y="180" as="sourcePoint" />
            <mxPoint x="149.60000000000002" y="170" as="targetPoint" />
          </mxGeometry>
        </mxCell>
        <mxCell id="c0UZ7J_gqb2rF32JrTu6-56" value="" style="group" vertex="1" connectable="0" parent="c0UZ7J_gqb2rF32JrTu6-11">
          <mxGeometry x="-10" width="180" height="180" as="geometry" />
        </mxCell>
        <mxCell id="c0UZ7J_gqb2rF32JrTu6-75" value="" style="group" vertex="1" connectable="0" parent="c0UZ7J_gqb2rF32JrTu6-56">
          <mxGeometry width="180" height="180" as="geometry" />
        </mxCell>
        <mxCell id="C-vyLk0tnHw3VtMMgP7b-23" value="Users" style="shape=table;startSize=30;container=1;collapsible=1;childLayout=tableLayout;fixedRows=1;rowLines=0;fontStyle=1;align=center;resizeLast=1;" parent="c0UZ7J_gqb2rF32JrTu6-75" vertex="1">
          <mxGeometry width="180" height="180" as="geometry" />
        </mxCell>
        <mxCell id="C-vyLk0tnHw3VtMMgP7b-24" value="" style="shape=partialRectangle;collapsible=0;dropTarget=0;pointerEvents=0;fillColor=none;points=[[0,0.5],[1,0.5]];portConstraint=eastwest;top=0;left=0;right=0;bottom=1;" parent="C-vyLk0tnHw3VtMMgP7b-23" vertex="1">
          <mxGeometry y="30" width="180" height="30" as="geometry" />
        </mxCell>
        <mxCell id="C-vyLk0tnHw3VtMMgP7b-25" value="PK" style="shape=partialRectangle;overflow=hidden;connectable=0;fillColor=none;top=0;left=0;bottom=0;right=0;fontStyle=1;" parent="C-vyLk0tnHw3VtMMgP7b-24" vertex="1">
          <mxGeometry width="20" height="30" as="geometry">
            <mxRectangle width="20" height="30" as="alternateBounds" />
          </mxGeometry>
        </mxCell>
        <mxCell id="C-vyLk0tnHw3VtMMgP7b-26" value="user_id" style="shape=partialRectangle;overflow=hidden;connectable=0;fillColor=none;top=0;left=0;bottom=0;right=0;align=left;spacingLeft=6;fontStyle=5;" parent="C-vyLk0tnHw3VtMMgP7b-24" vertex="1">
          <mxGeometry x="20" width="160" height="30" as="geometry">
            <mxRectangle width="160" height="30" as="alternateBounds" />
          </mxGeometry>
        </mxCell>
        <mxCell id="C-vyLk0tnHw3VtMMgP7b-27" value="" style="shape=partialRectangle;collapsible=0;dropTarget=0;pointerEvents=0;fillColor=none;points=[[0,0.5],[1,0.5]];portConstraint=eastwest;top=0;left=0;right=0;bottom=0;strokeColor=inherit;" parent="C-vyLk0tnHw3VtMMgP7b-23" vertex="1">
          <mxGeometry y="60" width="180" height="30" as="geometry" />
        </mxCell>
        <mxCell id="C-vyLk0tnHw3VtMMgP7b-28" value="" style="shape=partialRectangle;overflow=hidden;connectable=0;fillColor=none;top=0;left=0;bottom=0;right=0;" parent="C-vyLk0tnHw3VtMMgP7b-27" vertex="1">
          <mxGeometry width="20" height="30" as="geometry">
            <mxRectangle width="20" height="30" as="alternateBounds" />
          </mxGeometry>
        </mxCell>
        <mxCell id="C-vyLk0tnHw3VtMMgP7b-29" value="username" style="shape=partialRectangle;overflow=hidden;connectable=0;fillColor=none;top=0;left=0;bottom=0;right=0;align=left;spacingLeft=6;" parent="C-vyLk0tnHw3VtMMgP7b-27" vertex="1">
          <mxGeometry x="20" width="160" height="30" as="geometry">
            <mxRectangle width="160" height="30" as="alternateBounds" />
          </mxGeometry>
        </mxCell>
        <mxCell id="c0UZ7J_gqb2rF32JrTu6-48" value="" style="endArrow=none;html=1;rounded=0;entryX=0.111;entryY=0;entryDx=0;entryDy=0;entryPerimeter=0;" edge="1" parent="c0UZ7J_gqb2rF32JrTu6-75" target="C-vyLk0tnHw3VtMMgP7b-27">
          <mxGeometry width="50" height="50" relative="1" as="geometry">
            <mxPoint x="20" y="180" as="sourcePoint" />
            <mxPoint x="350" y="200" as="targetPoint" />
            <Array as="points">
              <mxPoint x="20" y="120" />
            </Array>
          </mxGeometry>
        </mxCell>
        <mxCell id="c0UZ7J_gqb2rF32JrTu6-7" value="password" style="shape=partialRectangle;overflow=hidden;connectable=0;fillColor=none;top=0;left=0;bottom=0;right=0;align=left;spacingLeft=6;" vertex="1" parent="c0UZ7J_gqb2rF32JrTu6-75">
          <mxGeometry x="20" y="90" width="149.60000000000002" height="30" as="geometry">
            <mxRectangle width="220" height="30" as="alternateBounds" />
          </mxGeometry>
        </mxCell>
        <mxCell id="c0UZ7J_gqb2rF32JrTu6-8" value="email" style="shape=partialRectangle;overflow=hidden;connectable=0;fillColor=none;top=0;left=0;bottom=0;right=0;align=left;spacingLeft=6;" vertex="1" parent="c0UZ7J_gqb2rF32JrTu6-75">
          <mxGeometry x="20" y="120" width="149.60000000000002" height="30" as="geometry">
            <mxRectangle width="220" height="30" as="alternateBounds" />
          </mxGeometry>
        </mxCell>
        <mxCell id="c0UZ7J_gqb2rF32JrTu6-9" value="bio" style="shape=partialRectangle;overflow=hidden;connectable=0;fillColor=none;top=0;left=0;bottom=0;right=0;align=left;spacingLeft=6;" vertex="1" parent="c0UZ7J_gqb2rF32JrTu6-75">
          <mxGeometry x="20" y="150" width="149.60000000000002" height="30" as="geometry">
            <mxRectangle width="220" height="30" as="alternateBounds" />
          </mxGeometry>
        </mxCell>
        <mxCell id="c0UZ7J_gqb2rF32JrTu6-76" value="" style="group" vertex="1" connectable="0" parent="1">
          <mxGeometry x="60" y="400" width="180" height="240" as="geometry" />
        </mxCell>
        <mxCell id="c0UZ7J_gqb2rF32JrTu6-129" style="edgeStyle=orthogonalEdgeStyle;rounded=0;orthogonalLoop=1;jettySize=auto;html=1;exitX=0.5;exitY=0;exitDx=0;exitDy=0;" edge="1" parent="c0UZ7J_gqb2rF32JrTu6-76" source="c0UZ7J_gqb2rF32JrTu6-77">
          <mxGeometry relative="1" as="geometry">
            <mxPoint x="360" y="-80" as="targetPoint" />
          </mxGeometry>
        </mxCell>
        <mxCell id="c0UZ7J_gqb2rF32JrTu6-77" value="People" style="shape=table;startSize=30;container=1;collapsible=1;childLayout=tableLayout;fixedRows=1;rowLines=0;fontStyle=1;align=center;resizeLast=1;" vertex="1" parent="c0UZ7J_gqb2rF32JrTu6-76">
          <mxGeometry width="180" height="200" as="geometry" />
        </mxCell>
        <mxCell id="c0UZ7J_gqb2rF32JrTu6-78" value="" style="shape=partialRectangle;collapsible=0;dropTarget=0;pointerEvents=0;fillColor=none;points=[[0,0.5],[1,0.5]];portConstraint=eastwest;top=0;left=0;right=0;bottom=1;" vertex="1" parent="c0UZ7J_gqb2rF32JrTu6-77">
          <mxGeometry y="30" width="180" height="30" as="geometry" />
        </mxCell>
        <mxCell id="c0UZ7J_gqb2rF32JrTu6-79" value="PK" style="shape=partialRectangle;overflow=hidden;connectable=0;fillColor=none;top=0;left=0;bottom=0;right=0;fontStyle=1;" vertex="1" parent="c0UZ7J_gqb2rF32JrTu6-78">
          <mxGeometry width="20" height="30" as="geometry">
            <mxRectangle width="20" height="30" as="alternateBounds" />
          </mxGeometry>
        </mxCell>
        <mxCell id="c0UZ7J_gqb2rF32JrTu6-80" value="person_id" style="shape=partialRectangle;overflow=hidden;connectable=0;fillColor=none;top=0;left=0;bottom=0;right=0;align=left;spacingLeft=6;fontStyle=5;strokeWidth=0;" vertex="1" parent="c0UZ7J_gqb2rF32JrTu6-78">
          <mxGeometry x="20" width="160" height="30" as="geometry">
            <mxRectangle width="160" height="30" as="alternateBounds" />
          </mxGeometry>
        </mxCell>
        <mxCell id="c0UZ7J_gqb2rF32JrTu6-81" value="" style="shape=partialRectangle;collapsible=0;dropTarget=0;pointerEvents=0;fillColor=none;points=[[0,0.5],[1,0.5]];portConstraint=eastwest;top=0;left=0;right=0;bottom=0;strokeColor=inherit;" vertex="1" parent="c0UZ7J_gqb2rF32JrTu6-77">
          <mxGeometry y="60" width="180" height="30" as="geometry" />
        </mxCell>
        <mxCell id="c0UZ7J_gqb2rF32JrTu6-82" value="" style="shape=partialRectangle;overflow=hidden;connectable=0;fillColor=none;top=0;left=0;bottom=0;right=0;" vertex="1" parent="c0UZ7J_gqb2rF32JrTu6-81">
          <mxGeometry width="20" height="30" as="geometry">
            <mxRectangle width="20" height="30" as="alternateBounds" />
          </mxGeometry>
        </mxCell>
        <mxCell id="c0UZ7J_gqb2rF32JrTu6-83" value="" style="shape=partialRectangle;overflow=hidden;connectable=0;fillColor=none;top=0;left=0;bottom=0;right=0;align=left;spacingLeft=6;" vertex="1" parent="c0UZ7J_gqb2rF32JrTu6-81">
          <mxGeometry x="20" width="160" height="30" as="geometry">
            <mxRectangle width="160" height="30" as="alternateBounds" />
          </mxGeometry>
        </mxCell>
        <mxCell id="c0UZ7J_gqb2rF32JrTu6-84" value="" style="endArrow=none;html=1;rounded=0;entryX=0.111;entryY=0;entryDx=0;entryDy=0;entryPerimeter=0;" edge="1" parent="c0UZ7J_gqb2rF32JrTu6-76" target="c0UZ7J_gqb2rF32JrTu6-81">
          <mxGeometry width="50" height="50" relative="1" as="geometry">
            <mxPoint x="20" y="200" as="sourcePoint" />
            <mxPoint x="350" y="255.5555555555556" as="targetPoint" />
            <Array as="points">
              <mxPoint x="20" y="153.33333333333337" />
            </Array>
          </mxGeometry>
        </mxCell>
        <mxCell id="c0UZ7J_gqb2rF32JrTu6-85" value="first_name" style="shape=partialRectangle;overflow=hidden;connectable=0;fillColor=none;top=0;left=0;bottom=0;right=0;align=left;spacingLeft=6;" vertex="1" parent="c0UZ7J_gqb2rF32JrTu6-76">
          <mxGeometry x="20" y="60.00333333333333" width="149.60000000000002" height="38.33333333333334" as="geometry">
            <mxRectangle width="220" height="30" as="alternateBounds" />
          </mxGeometry>
        </mxCell>
        <mxCell id="c0UZ7J_gqb2rF32JrTu6-86" value="last_name" style="shape=partialRectangle;overflow=hidden;connectable=0;fillColor=none;top=0;left=0;bottom=0;right=0;align=left;spacingLeft=6;" vertex="1" parent="c0UZ7J_gqb2rF32JrTu6-76">
          <mxGeometry x="20" y="90.00238095238099" width="149.60000000000002" height="38.33333333333334" as="geometry">
            <mxRectangle width="220" height="30" as="alternateBounds" />
          </mxGeometry>
        </mxCell>
        <mxCell id="c0UZ7J_gqb2rF32JrTu6-87" value="sex" style="shape=partialRectangle;overflow=hidden;connectable=0;fillColor=none;top=0;left=0;bottom=0;right=0;align=left;spacingLeft=6;" vertex="1" parent="c0UZ7J_gqb2rF32JrTu6-76">
          <mxGeometry x="20" y="150" width="149.6" height="50" as="geometry">
            <mxRectangle width="220" height="30" as="alternateBounds" />
          </mxGeometry>
        </mxCell>
        <mxCell id="c0UZ7J_gqb2rF32JrTu6-113" value="birth_date" style="shape=partialRectangle;overflow=hidden;connectable=0;fillColor=none;top=0;left=0;bottom=0;right=0;align=left;spacingLeft=6;" vertex="1" parent="c0UZ7J_gqb2rF32JrTu6-76">
          <mxGeometry x="20" y="128.8057142857143" width="149.60000000000002" height="32.85714285714286" as="geometry">
            <mxRectangle width="220" height="30" as="alternateBounds" />
          </mxGeometry>
        </mxCell>
        <mxCell id="c0UZ7J_gqb2rF32JrTu6-88" value="" style="group" vertex="1" connectable="0" parent="1">
          <mxGeometry x="330" y="400" width="180" height="160" as="geometry" />
        </mxCell>
        <mxCell id="c0UZ7J_gqb2rF32JrTu6-130" style="edgeStyle=orthogonalEdgeStyle;rounded=0;orthogonalLoop=1;jettySize=auto;html=1;strokeWidth=1;" edge="1" parent="c0UZ7J_gqb2rF32JrTu6-88" source="c0UZ7J_gqb2rF32JrTu6-89">
          <mxGeometry relative="1" as="geometry">
            <mxPoint x="90" y="-80" as="targetPoint" />
          </mxGeometry>
        </mxCell>
        <mxCell id="c0UZ7J_gqb2rF32JrTu6-89" value="Groups" style="shape=table;startSize=30;container=1;collapsible=1;childLayout=tableLayout;fixedRows=1;rowLines=0;fontStyle=1;align=center;resizeLast=1;" vertex="1" parent="c0UZ7J_gqb2rF32JrTu6-88">
          <mxGeometry width="180" height="100" as="geometry" />
        </mxCell>
        <mxCell id="c0UZ7J_gqb2rF32JrTu6-90" value="" style="shape=partialRectangle;collapsible=0;dropTarget=0;pointerEvents=0;fillColor=none;points=[[0,0.5],[1,0.5]];portConstraint=eastwest;top=0;left=0;right=0;bottom=1;" vertex="1" parent="c0UZ7J_gqb2rF32JrTu6-89">
          <mxGeometry y="30" width="180" height="30" as="geometry" />
        </mxCell>
        <mxCell id="c0UZ7J_gqb2rF32JrTu6-91" value="PK" style="shape=partialRectangle;overflow=hidden;connectable=0;fillColor=none;top=0;left=0;bottom=0;right=0;fontStyle=1;" vertex="1" parent="c0UZ7J_gqb2rF32JrTu6-90">
          <mxGeometry width="20" height="30" as="geometry">
            <mxRectangle width="20" height="30" as="alternateBounds" />
          </mxGeometry>
        </mxCell>
        <mxCell id="c0UZ7J_gqb2rF32JrTu6-92" value="group_id" style="shape=partialRectangle;overflow=hidden;connectable=0;fillColor=none;top=0;left=0;bottom=0;right=0;align=left;spacingLeft=6;fontStyle=5;" vertex="1" parent="c0UZ7J_gqb2rF32JrTu6-90">
          <mxGeometry x="20" width="160" height="30" as="geometry">
            <mxRectangle width="160" height="30" as="alternateBounds" />
          </mxGeometry>
        </mxCell>
        <mxCell id="c0UZ7J_gqb2rF32JrTu6-93" value="" style="shape=partialRectangle;collapsible=0;dropTarget=0;pointerEvents=0;fillColor=none;points=[[0,0.5],[1,0.5]];portConstraint=eastwest;top=0;left=0;right=0;bottom=0;strokeColor=inherit;" vertex="1" parent="c0UZ7J_gqb2rF32JrTu6-89">
          <mxGeometry y="60" width="180" height="30" as="geometry" />
        </mxCell>
        <mxCell id="c0UZ7J_gqb2rF32JrTu6-94" value="" style="shape=partialRectangle;overflow=hidden;connectable=0;fillColor=none;top=0;left=0;bottom=0;right=0;" vertex="1" parent="c0UZ7J_gqb2rF32JrTu6-93">
          <mxGeometry width="20" height="30" as="geometry">
            <mxRectangle width="20" height="30" as="alternateBounds" />
          </mxGeometry>
        </mxCell>
        <mxCell id="c0UZ7J_gqb2rF32JrTu6-95" value="" style="shape=partialRectangle;overflow=hidden;connectable=0;fillColor=none;top=0;left=0;bottom=0;right=0;align=left;spacingLeft=6;" vertex="1" parent="c0UZ7J_gqb2rF32JrTu6-93">
          <mxGeometry x="20" width="160" height="30" as="geometry">
            <mxRectangle width="160" height="30" as="alternateBounds" />
          </mxGeometry>
        </mxCell>
        <mxCell id="c0UZ7J_gqb2rF32JrTu6-96" value="" style="endArrow=none;html=1;rounded=0;entryX=0.111;entryY=0;entryDx=0;entryDy=0;entryPerimeter=0;" edge="1" parent="c0UZ7J_gqb2rF32JrTu6-88" target="c0UZ7J_gqb2rF32JrTu6-93">
          <mxGeometry width="50" height="50" relative="1" as="geometry">
            <mxPoint x="20" y="100" as="sourcePoint" />
            <mxPoint x="350" y="177.77777777777777" as="targetPoint" />
            <Array as="points" />
          </mxGeometry>
        </mxCell>
        <mxCell id="c0UZ7J_gqb2rF32JrTu6-98" value="group_name" style="shape=partialRectangle;overflow=hidden;connectable=0;fillColor=none;top=0;left=0;bottom=0;right=0;align=left;spacingLeft=6;" vertex="1" parent="c0UZ7J_gqb2rF32JrTu6-88">
          <mxGeometry x="20" y="66.66" width="160" height="26.67" as="geometry">
            <mxRectangle width="220" height="30" as="alternateBounds" />
          </mxGeometry>
        </mxCell>
        <mxCell id="c0UZ7J_gqb2rF32JrTu6-100" value="" style="group" vertex="1" connectable="0" parent="1">
          <mxGeometry x="600" y="400" width="180" height="130" as="geometry" />
        </mxCell>
        <mxCell id="c0UZ7J_gqb2rF32JrTu6-131" style="edgeStyle=orthogonalEdgeStyle;rounded=0;orthogonalLoop=1;jettySize=auto;html=1;exitX=0.5;exitY=0;exitDx=0;exitDy=0;" edge="1" parent="c0UZ7J_gqb2rF32JrTu6-100" source="c0UZ7J_gqb2rF32JrTu6-101">
          <mxGeometry relative="1" as="geometry">
            <mxPoint x="-180" y="-80" as="targetPoint" />
          </mxGeometry>
        </mxCell>
        <mxCell id="c0UZ7J_gqb2rF32JrTu6-101" value="Organizers" style="shape=table;startSize=30;container=1;collapsible=1;childLayout=tableLayout;fixedRows=1;rowLines=0;fontStyle=1;align=center;resizeLast=1;" vertex="1" parent="c0UZ7J_gqb2rF32JrTu6-100">
          <mxGeometry width="180" height="130" as="geometry" />
        </mxCell>
        <mxCell id="c0UZ7J_gqb2rF32JrTu6-102" value="" style="shape=partialRectangle;collapsible=0;dropTarget=0;pointerEvents=0;fillColor=none;points=[[0,0.5],[1,0.5]];portConstraint=eastwest;top=0;left=0;right=0;bottom=1;" vertex="1" parent="c0UZ7J_gqb2rF32JrTu6-101">
          <mxGeometry y="30" width="180" height="30" as="geometry" />
        </mxCell>
        <mxCell id="c0UZ7J_gqb2rF32JrTu6-103" value="PK" style="shape=partialRectangle;overflow=hidden;connectable=0;fillColor=none;top=0;left=0;bottom=0;right=0;fontStyle=1;" vertex="1" parent="c0UZ7J_gqb2rF32JrTu6-102">
          <mxGeometry width="20" height="30" as="geometry">
            <mxRectangle width="20" height="30" as="alternateBounds" />
          </mxGeometry>
        </mxCell>
        <mxCell id="c0UZ7J_gqb2rF32JrTu6-104" value="organizer_id" style="shape=partialRectangle;overflow=hidden;connectable=0;fillColor=none;top=0;left=0;bottom=0;right=0;align=left;spacingLeft=6;fontStyle=5;" vertex="1" parent="c0UZ7J_gqb2rF32JrTu6-102">
          <mxGeometry x="20" width="160" height="30" as="geometry">
            <mxRectangle width="160" height="30" as="alternateBounds" />
          </mxGeometry>
        </mxCell>
        <mxCell id="c0UZ7J_gqb2rF32JrTu6-105" value="" style="shape=partialRectangle;collapsible=0;dropTarget=0;pointerEvents=0;fillColor=none;points=[[0,0.5],[1,0.5]];portConstraint=eastwest;top=0;left=0;right=0;bottom=0;strokeColor=inherit;" vertex="1" parent="c0UZ7J_gqb2rF32JrTu6-101">
          <mxGeometry y="60" width="180" height="30" as="geometry" />
        </mxCell>
        <mxCell id="c0UZ7J_gqb2rF32JrTu6-106" value="" style="shape=partialRectangle;overflow=hidden;connectable=0;fillColor=none;top=0;left=0;bottom=0;right=0;" vertex="1" parent="c0UZ7J_gqb2rF32JrTu6-105">
          <mxGeometry width="20" height="30" as="geometry">
            <mxRectangle width="20" height="30" as="alternateBounds" />
          </mxGeometry>
        </mxCell>
        <mxCell id="c0UZ7J_gqb2rF32JrTu6-107" value="" style="shape=partialRectangle;overflow=hidden;connectable=0;fillColor=none;top=0;left=0;bottom=0;right=0;align=left;spacingLeft=6;" vertex="1" parent="c0UZ7J_gqb2rF32JrTu6-105">
          <mxGeometry x="20" width="160" height="30" as="geometry">
            <mxRectangle width="160" height="30" as="alternateBounds" />
          </mxGeometry>
        </mxCell>
        <mxCell id="c0UZ7J_gqb2rF32JrTu6-108" value="" style="endArrow=none;html=1;rounded=0;entryX=0.111;entryY=0;entryDx=0;entryDy=0;entryPerimeter=0;" edge="1" parent="c0UZ7J_gqb2rF32JrTu6-100" target="c0UZ7J_gqb2rF32JrTu6-105">
          <mxGeometry width="50" height="50" relative="1" as="geometry">
            <mxPoint x="20" y="130" as="sourcePoint" />
            <mxPoint x="350" y="144.44444444444443" as="targetPoint" />
            <Array as="points">
              <mxPoint x="20" y="86.66666666666666" />
            </Array>
          </mxGeometry>
        </mxCell>
        <mxCell id="c0UZ7J_gqb2rF32JrTu6-109" value="organizer_name" style="shape=partialRectangle;overflow=hidden;connectable=0;fillColor=none;top=0;left=0;bottom=0;right=0;align=left;spacingLeft=6;" vertex="1" parent="c0UZ7J_gqb2rF32JrTu6-100">
          <mxGeometry x="20" y="69.999375" width="149.60000000000002" height="21.666666666666664" as="geometry">
            <mxRectangle width="220" height="30" as="alternateBounds" />
          </mxGeometry>
        </mxCell>
        <mxCell id="c0UZ7J_gqb2rF32JrTu6-110" value="location" style="shape=partialRectangle;overflow=hidden;connectable=0;fillColor=none;top=0;left=0;bottom=0;right=0;align=left;spacingLeft=6;" vertex="1" parent="c0UZ7J_gqb2rF32JrTu6-100">
          <mxGeometry x="20" y="99.99729166666664" width="149.60000000000002" height="21.666666666666664" as="geometry">
            <mxRectangle width="220" height="30" as="alternateBounds" />
          </mxGeometry>
        </mxCell>
        <mxCell id="c0UZ7J_gqb2rF32JrTu6-134" value="Actor" style="shape=umlActor;verticalLabelPosition=bottom;verticalAlign=top;html=1;outlineConnect=0;" vertex="1" parent="1">
          <mxGeometry x="-450" y="360" width="30" height="60" as="geometry" />
        </mxCell>
        <mxCell id="c0UZ7J_gqb2rF32JrTu6-135" value="Actor" style="shape=umlActor;verticalLabelPosition=bottom;verticalAlign=top;html=1;outlineConnect=0;" vertex="1" parent="1">
          <mxGeometry x="1260" y="340" width="30" height="60" as="geometry" />
        </mxCell>
      </root>
    </mxGraphModel>
  </diagram>
</mxfile>
